<svg xmlns="http://www.w3.org/2000/svg" width="10.059" height="17" viewBox="0 0 10.059 17">
  <path id="dollar-sign-solid" d="M20.492,0a1,1,0,0,1,1,1V2.115l.147.021c.331.049,1.319.208,1.725.311a1.022,1.022,0,0,1,.722,1.215,1,1,0,0,1-1.216.725,12.757,12.757,0,0,0-1.525-.272,5.046,5.046,0,0,0-2.453.15c-.571.219-.808.528-.871.875a1.04,1.04,0,0,0,.04.644,1.079,1.079,0,0,0,.4.419,8.525,8.525,0,0,0,2.289.831l.087.025a9.82,9.82,0,0,1,2.781,1.072,3.057,3.057,0,0,1,1.112,1.241,2.971,2.971,0,0,1,.2,1.819,3.238,3.238,0,0,1-2.053,2.422,5.19,5.19,0,0,1-1.388.344V15a1,1,0,1,1-2,0V13.909c-.013,0-.028-.031-.041-.006h-.006a13.29,13.29,0,0,1-2.859-.822,1,1,0,0,1-.507-1.322.978.978,0,0,1,1.292-.506,11.971,11.971,0,0,0,2.378.672,4.681,4.681,0,0,0,2.378-.163,1.205,1.205,0,0,0,.837-.9,1.04,1.04,0,0,0-.041-.644,1.089,1.089,0,0,0-.4-.419,8.553,8.553,0,0,0-2.291-.831l-.087-.025A9.834,9.834,0,0,1,17.36,7.869a3.053,3.053,0,0,1-1.111-1.241,3.014,3.014,0,0,1-.2-1.847A3.17,3.17,0,0,1,18.179,2.4a5.486,5.486,0,0,1,1.314-.312V1a1,1,0,0,1,1-1Z" transform="translate(-15.435 0.5)" fill="none" stroke="#707070" stroke-width="1"/>
</svg>
