<svg xmlns="http://www.w3.org/2000/svg" width="18.19" height="16" viewBox="0 0 18.19 16">
  <path id="right-from-bracket-solid" d="M3.411,48H5.684a1.143,1.143,0,0,0,0-2.286H3.411a1.14,1.14,0,0,1-1.137-1.143V35.429a1.14,1.14,0,0,1,1.137-1.143H5.684a1.143,1.143,0,0,0,0-2.286H3.411A3.42,3.42,0,0,0,0,35.429v9.143A3.42,3.42,0,0,0,3.411,48Zm14.523-8.625-5.119-4.857a.853.853,0,0,0-1.439.623l0,2.571H6.825a1.14,1.14,0,0,0-1.138,1.143v2.286a1.14,1.14,0,0,0,1.138,1.143h4.547l0,2.539a.853.853,0,0,0,1.439.623l5.119-4.857A.849.849,0,0,0,17.934,39.375Z" transform="translate(0 -32)" fill="#707070"/>
</svg>
